HIERARCHY
ROOT joint_Root
{
	OFFSET 0.0 0.0 0.0
	CHANNELS 6 Xposition Yposition Zposition Zrotation Xrotation Yrotation 
	JOINT Hips
	{
		OFFSET -0.726466 93.3139 -2.00062
		CHANNELS 6 Xposition Yposition Zposition Zrotation Xrotation Yrotation 
		JOINT Spine
		{
			OFFSET 15.7357 0.0 0.0
			CHANNELS 6 Xposition Yposition Zposition Zrotation Xrotation Yrotation 
			JOINT Chest
			{
				OFFSET 8.98455 -0.406207 0.0
				CHANNELS 6 Xposition Yposition Zposition Zrotation Xrotation Yrotation 
				JOINT Neck
				{
					OFFSET 16.3773 0.0 0.0
					CHANNELS 6 Xposition Yposition Zposition Zrotation Xrotation Yrotation 
					JOINT Head
					{
						OFFSET 6.45672 0.0 0.0
						CHANNELS 6 Xposition Yposition Zposition Zrotation Xrotation Yrotation 
						End Site
						{
							OFFSET 0.0 0.0 0.0
						}
					}
				}
				JOINT Shoulder_L
				{
					OFFSET 12.9942 -0.242716 4.98039
					CHANNELS 6 Xposition Yposition Zposition Zrotation Xrotation Yrotation 
					JOINT UpperArm_L
					{
						OFFSET 5.34809 0.0 0.0
						CHANNELS 6 Xposition Yposition Zposition Zrotation Xrotation Yrotation 
						JOINT LowerArm_L
						{
							OFFSET 24.3286 1.87007e-05 0.0
							CHANNELS 6 Xposition Yposition Zposition Zrotation Xrotation Yrotation 
							JOINT Hand_L
							{
								OFFSET 22.2916 0.0 0.0
								CHANNELS 6 Xposition Yposition Zposition Zrotation Xrotation Yrotation 
								End Site
								{
									OFFSET 0.0 0.0 0.0
								}
							}
						}
					}
				}
				JOINT Shoulder_R
				{
					OFFSET 12.9945 -0.242716 -4.98039
					CHANNELS 6 Xposition Yposition Zposition Zrotation Xrotation Yrotation 
					JOINT UpperArm_R
					{
						OFFSET -5.34813 0.0 0.0
						CHANNELS 6 Xposition Yposition Zposition Zrotation Xrotation Yrotation 
						JOINT LowerArm_R
						{
							OFFSET -24.3289 0.000322201 0.0
							CHANNELS 6 Xposition Yposition Zposition Zrotation Xrotation Yrotation 
							JOINT Hand_R
							{
								OFFSET -22.2915 -0.000108084 0.0
								CHANNELS 6 Xposition Yposition Zposition Zrotation Xrotation Yrotation 
								End Site
								{
									OFFSET 0.0 0.0 0.0
								}
							}
						}
					}
				}
			}
		}
		JOINT UpperLeg_L
		{
			OFFSET -2.19248 -6.46944 0.0
			CHANNELS 6 Xposition Yposition Zposition Zrotation Xrotation Yrotation 
			JOINT LowerLeg_L
			{
				OFFSET 39.0811 0.0 -1.23785e-05
				CHANNELS 6 Xposition Yposition Zposition Zrotation Xrotation Yrotation 
				JOINT Foot_L
				{
					OFFSET 40.9854 0.0 -1.26872e-05
					CHANNELS 6 Xposition Yposition Zposition Zrotation Xrotation Yrotation 
					JOINT Toes_L
					{
						OFFSET 11.7543 0.0 0.0
						CHANNELS 6 Xposition Yposition Zposition Zrotation Xrotation Yrotation 
						End Site
						{
							OFFSET 0.0 0.0 0.0
						}
					}
				}
			}
		}
		JOINT UpperLeg_R
		{
			OFFSET -2.19251 6.46944 0.0
			CHANNELS 6 Xposition Yposition Zposition Zrotation Xrotation Yrotation 
			JOINT LowerLeg_R
			{
				OFFSET -39.0811 -0.00228153 -0.0401928
				CHANNELS 6 Xposition Yposition Zposition Zrotation Xrotation Yrotation 
				JOINT Foot_R
				{
					OFFSET -40.9854 0.0 0.0
					CHANNELS 6 Xposition Yposition Zposition Zrotation Xrotation Yrotation 
					JOINT Toes_R
					{
						OFFSET -11.7543 0.0 0.0
						CHANNELS 6 Xposition Yposition Zposition Zrotation Xrotation Yrotation 
						End Site
						{
							OFFSET 0.0 0.0 0.0
						}
					}
				}
			}
		}
	}
}
MOTION
Frames:	6
Frame Time:	0.0333333
0.000000 0.000000 0.000000 0.000000 0.000000 -0.000000 -197.730000 91.084000 195.769000 40.584200 83.246100 49.688800 15.735700 0.000005 -0.000001 81.983300 81.604800 -81.362000 8.984550 -0.406207 -0.000000 8.878580 -2.323610 1.422090 16.377300 -0.000001 -0.000001 6.409990 0.357522 -1.098090 6.456720 -0.000001 -0.000000 -0.490238 3.124940 5.810410 12.994200 -0.242716 4.980390 -88.471500 -4.185200 -69.915200 5.348090 -0.000007 -0.000001 -55.371700 26.358700 -22.034000 24.328600 0.000019 0.000005 -0.692294 -0.680740 -45.470900 22.291600 -0.000001 0.000005 4.478150 5.610590 -11.995900 12.994500 -0.242716 -4.980390 88.796700 2.917970 -67.578800 -5.348130 -0.000001 -0.000004 -63.884900 34.432300 -3.639800 -24.328900 0.000322 -0.000009 0.266856 0.406191 -33.413900 -22.291500 -0.000108 -0.000004 -0.979163 5.547510 -8.588960 -2.192480 -6.469440 -0.000000 -174.960000 -7.954580 -8.953010 39.081100 -0.000007 -0.000012 -0.173352 0.285055 31.305500 40.985400 -0.000006 -0.000013 0.920271 -0.679492 -72.297000 11.754300 -0.000000 0.000003 -0.000192 -0.001793 -16.645200 -2.192510 6.469440 -0.000001 -179.793000 19.398500 157.645000 -39.081100 -0.002282 -0.040193 0.171105 -0.127757 52.726800 -40.985400 0.000008 0.000006 -0.550596 -3.525610 -55.883100 -11.754300 -0.000006 -0.000006 -0.018831 -0.160726 -23.137600
0.000000 0.000000 0.000000 0.000000 0.000000 -0.000000 -195.425000 91.239000 195.789000 33.954400 83.347600 56.245300 15.735700 0.000005 -0.000001 78.701400 81.472900 -77.775400 8.984550 -0.406207 -0.000000 8.996360 -3.313930 2.111450 16.377300 -0.000001 -0.000001 6.454840 0.154044 -1.117440 6.456720 -0.000001 -0.000000 -0.577166 3.822890 5.796580 12.994200 -0.242716 4.980390 -88.404000 -4.511700 -70.495700 5.348090 -0.000007 -0.000001 -51.850600 25.500000 -26.125500 24.328600 0.000019 0.000005 -0.969990 -0.889928 -47.466900 22.291600 -0.000001 0.000005 4.689780 5.609290 -11.913100 12.994500 -0.242716 -4.980390 88.787100 2.836760 -66.839100 -5.348130 -0.000001 -0.000004 -64.062700 34.641300 -1.695460 -24.328900 0.000322 -0.000009 0.118827 0.177724 -34.005500 -22.291500 -0.000108 -0.000004 -0.956250 5.547030 -8.566490 -2.192480 -6.469440 -0.000000 -174.373000 -7.865150 -6.285690 39.081100 -0.000007 -0.000012 -0.173395 0.311225 29.124100 40.985400 -0.000006 -0.000013 0.941326 -0.106894 -72.854600 11.754300 -0.000000 0.000003 -0.000178 -0.001676 -16.641000 -2.192510 6.469440 -0.000001 -176.892000 21.007900 155.396000 -39.081100 -0.002282 -0.040193 0.103669 -0.102198 44.492600 -40.985400 0.000008 0.000006 -1.056820 -3.515010 -56.591700 -11.754300 -0.000006 -0.000006 -0.019810 -0.166234 -23.364400
0.000000 0.000000 0.000000 0.000000 0.000000 -0.000000 -193.153000 91.088000 195.853000 27.547200 83.850700 62.463400 15.735700 0.000005 -0.000001 75.446000 81.331200 -74.400500 8.984550 -0.406207 -0.000000 9.074800 -4.321830 2.433060 16.377300 -0.000001 -0.000001 6.456000 -0.032754 -0.985271 6.456720 -0.000001 -0.000000 -0.676723 4.300530 5.873350 12.994200 -0.242716 4.980390 -88.310700 -4.923690 -71.035700 5.348090 -0.000007 -0.000001 -48.441300 24.384900 -29.669400 24.328600 0.000019 0.000005 -0.704947 -0.600143 -49.597600 22.291600 -0.000001 0.000005 5.017950 5.602820 -11.513200 12.994500 -0.242716 -4.980390 88.764900 2.796250 -66.157900 -5.348130 -0.000001 -0.000004 -64.405500 34.298400 0.291316 -24.328900 0.000322 -0.000009 0.180951 0.262309 -34.762600 -22.291500 -0.000108 -0.000004 -0.885974 5.546940 -8.562240 -2.192480 -6.469440 -0.000000 -174.178000 -7.493300 -4.230140 39.081100 -0.000007 -0.000012 -0.199757 0.377032 27.915600 40.985400 -0.000006 -0.000013 0.885869 0.396447 -73.908100 11.754300 -0.000000 0.000003 -0.000139 -0.001359 -16.629300 -2.192510 6.469440 -0.000001 -174.348000 22.627100 153.598000 -39.081100 -0.002282 -0.040193 0.056971 -0.076636 35.009400 -40.985400 0.000008 0.000006 -1.821780 -2.857610 -55.510100 -11.754300 -0.000006 -0.000006 -0.019883 -0.166642 -23.381200
0.000000 0.000000 0.000000 0.000000 0.000000 -0.000000 -190.739000 90.683000 195.926000 22.459700 84.708600 67.300500 15.735700 0.000005 -0.000001 73.008200 81.185300 -72.000300 8.984550 -0.406207 -0.000000 9.166870 -5.111940 2.425220 16.377300 -0.000001 -0.000001 6.273170 -0.314667 -0.839456 6.456720 -0.000001 -0.000000 -0.722441 4.550740 5.933730 12.994200 -0.242716 4.980390 -88.259500 -5.213290 -71.508900 5.348090 -0.000007 -0.000001 -45.093400 23.225400 -32.950400 24.328600 0.000019 0.000005 -0.695872 -0.554274 -51.459000 22.291600 -0.000001 0.000005 5.411240 5.602260 -11.476900 12.994500 -0.242716 -4.980390 88.753600 2.744050 -65.559500 -5.348130 -0.000001 -0.000004 -64.866500 33.309900 2.305880 -24.328900 0.000322 -0.000009 -0.054624 -0.074364 -35.714300 -22.291500 -0.000108 -0.000004 -0.811774 5.548840 -8.650970 -2.192480 -6.469440 -0.000000 -174.575000 -6.864870 -2.529240 39.081100 -0.000007 -0.000012 -0.200801 0.387802 27.375000 40.985400 -0.000006 -0.000013 0.748046 0.497940 -75.352300 11.754300 -0.000000 0.000003 -0.000153 -0.001474 -16.633600 -2.192510 6.469440 -0.000001 -172.258000 23.971100 152.227000 -39.081100 -0.002282 -0.040193 0.027527 -0.051423 25.215500 -40.985400 0.000008 0.000006 -2.870010 -1.385880 -54.432600 -11.754300 -0.000006 -0.000006 -0.018920 -0.161231 -23.158400
0.000000 0.000000 0.000000 0.000000 0.000000 -0.000000 -188.100000 90.033900 196.027000 16.668500 85.781600 72.947700 15.735700 0.000005 -0.000001 71.073600 81.033300 -70.183400 8.984550 -0.406207 -0.000000 9.278420 -5.773130 2.248940 16.377300 -0.000001 -0.000001 6.162940 -0.577448 -0.769599 6.456720 -0.000001 -0.000000 -0.716105 4.547420 6.004730 12.994200 -0.242716 4.980390 -88.238200 -5.379720 -71.836500 5.348090 -0.000007 -0.000001 -41.961200 22.296500 -35.834200 24.328600 0.000019 0.000005 -1.179570 -0.891373 -52.924000 22.291600 -0.000001 0.000005 5.667680 5.600260 -11.357700 12.994500 -0.242716 -4.980390 88.772100 2.653050 -65.153400 -5.348130 -0.000001 -0.000004 -65.350800 32.337200 4.232810 -24.328900 0.000322 -0.000009 -0.564460 -0.760810 -36.518300 -22.291500 -0.000108 -0.000004 -0.704395 5.553130 -8.854390 -2.192480 -6.469440 -0.000000 -175.153000 -6.406810 -0.727518 39.081100 -0.000007 -0.000012 -0.223951 0.434104 27.289200 40.985400 -0.000006 -0.000013 0.637490 0.781829 -77.236600 11.754300 -0.000000 0.000003 -0.000149 -0.001445 -16.632500 -2.192510 6.469440 -0.000001 -170.440000 25.490400 151.088000 -39.081100 -0.002282 -0.040193 0.014639 -0.038152 16.513500 -40.985400 0.000008 0.000006 -4.402950 0.797353 -53.364500 -11.754300 -0.000006 -0.000006 -0.020685 -0.171056 -23.563100
0.000000 0.000000 0.000000 0.000000 0.000000 -0.000000 -185.170000 89.228000 196.243000 5.774460 86.638800 83.870300 15.735700 0.000005 -0.000001 69.615700 80.850200 -68.757900 8.984550 -0.406207 -0.000000 9.478500 -6.324970 2.240440 16.377300 -0.000001 -0.000001 6.208390 -0.848493 -0.782480 6.456720 -0.000001 -0.000000 -0.720031 4.399380 6.044460 12.994200 -0.242716 4.980390 -88.237100 -5.442300 -72.020600 5.348090 -0.000007 -0.000001 -39.608300 21.557100 -38.079300 24.328600 0.000019 0.000005 -1.424760 -1.031850 -54.095100 22.291600 -0.000001 0.000005 5.366400 5.599710 -11.324100 12.994500 -0.242716 -4.980390 88.831500 2.499810 -64.937900 -5.348130 -0.000001 -0.000004 -65.757600 31.626800 5.780390 -24.328900 0.000322 -0.000009 -0.669909 -0.887980 -36.988700 -22.291500 -0.000108 -0.000004 -0.594934 5.554960 -8.942140 -2.192480 -6.469440 -0.000000 -175.269000 -6.372980 1.535490 39.081100 -0.000007 -0.000012 -0.232933 0.453744 27.174400 40.985400 -0.000006 -0.000013 0.569288 1.723950 -79.352700 11.754300 -0.000000 0.000003 -0.000156 -0.001505 -16.634700 -2.192510 6.469440 -0.000001 -168.714000 27.022200 149.772000 -39.081100 -0.002282 -0.040193 0.011278 -0.041147 10.923000 -40.985400 0.000008 0.000006 -6.861780 2.281820 -52.876000 -11.754300 -0.000006 -0.000006 -0.021653 -0.176278 -23.778400
